<?xml version="1.0" encoding="utf-8"?>
<!-- Generator: Adobe Illustrator 23.0.6, SVG Export Plug-In . SVG Version: 6.00 Build 0)  -->
<!DOCTYPE svg PUBLIC "-//W3C//DTD SVG 1.1//EN" "http://www.w3.org/Graphics/SVG/1.1/DTD/svg11.dtd" [
	<!ENTITY ns_extend "http://ns.adobe.com/Extensibility/1.0/">
	<!ENTITY ns_ai "http://ns.adobe.com/AdobeIllustrator/10.0/">
	<!ENTITY ns_graphs "http://ns.adobe.com/Graphs/1.0/">
	<!ENTITY ns_vars "http://ns.adobe.com/Variables/1.0/">
	<!ENTITY ns_imrep "http://ns.adobe.com/ImageReplacement/1.0/">
	<!ENTITY ns_sfw "http://ns.adobe.com/SaveForWeb/1.0/">
	<!ENTITY ns_custom "http://ns.adobe.com/GenericCustomNamespace/1.0/">
	<!ENTITY ns_adobe_xpath "http://ns.adobe.com/XPath/1.0/">
]>
<svg version="1.1" xmlns:x="&ns_extend;" xmlns:i="&ns_ai;" xmlns:graph="&ns_graphs;"
	 xmlns="http://www.w3.org/2000/svg" xmlns:xlink="http://www.w3.org/1999/xlink" x="0px" y="0px" viewBox="0 0 750 750"
	 enable-background="new 0 0 750 750" xml:space="preserve">
<metadata>
	<sfw  xmlns="&ns_sfw;">
		<slices></slices>
		<sliceSourceBounds  bottomLeftOrigin="true" height="14750" width="5875" x="-3125" y="-7000"></sliceSourceBounds>
	</sfw>
</metadata>
<g id="FILL-BACKGROUND">
	<rect fill="#FFFFFF" width="750" height="750"/>
</g>
<g id="AG-DIAGRAM">
</g>
<g id="AG-DETAILS">
</g>
<g id="AG-SPORTS">
	<g id="POLYLINE_1159_">
		
			<path fill="none" stroke="#E74C3C" stroke-width="2.75" stroke-linecap="round" stroke-linejoin="round" stroke-miterlimit="10" d="
			M436.175,222.315c-2.059,0.064-4.178-0.065-6.219,0.271c-2.535,0.416-3.837,2.024-4.379,4.477
			c-0.941,4.256-0.278,8.897-0.053,13.196c0.113,2.171,0.231,4.345,0.176,6.519c-0.047,1.855-0.128,3.917-0.996,5.598
			c-2.019,3.911-7.025,1.116-9.591-0.58c-3.392-2.242-6.418-5.138-8.881-8.368c-2.534-3.322-4.425-7.076-5.741-11.035
			c-1.337-4.023-2.127-8.223-2.546-12.437c-0.437-4.396-0.457-8.83-0.158-13.236c0.282-4.146,0.814-8.297,1.806-12.336
			c0.995-4.05,2.471-8.086,4.93-11.489c3.001-4.154,7.454-6.706,12.318-8.073c4.062-1.141,8.309-1.544,12.516-1.612
			c4.276-0.068,8.568,0.213,12.79,0.899c4.029,0.655,8.044,1.671,11.782,3.334c3.412,1.518,6.506,3.634,8.904,6.52
			c2.447,2.945,4.085,6.461,5.302,10.068c1.344,3.983,2.318,8.116,2.968,12.268c0.333,2.129,0.593,4.29,0.597,6.448
			c0.004,1.763-0.03,4.046-1.779,5.013c-1.713,0.946-4.022,1.101-5.929,1.348c-2.05,0.265-4.102,0.511-6.153,0.767
			c-5.061,0.631-10.118,1.297-15.184,1.89C440.502,222.017,438.343,222.222,436.175,222.315z"/>
	</g>
	<g id="POLYLINE_1160_">
		
			<path fill="none" stroke="#E74C3C" stroke-width="2.75" stroke-linecap="round" stroke-linejoin="round" stroke-miterlimit="10" d="
			M425.296,236.299c2.751,3.842,6.228,6.604,10.8,7.996c4.303,1.31,9.302,1.539,13.006-1.381c1.092-0.861,2.04-1.882,2.986-2.896
			c0.776-0.831,1.564-1.803,2.569-2.364c2.012-1.122,3.824,1.414,5.654,1.935c4.993,1.42,8.034-4.54,9.273-8.381
			c1.263-3.918,1.687-8.184,1.112-12.265c-0.072-0.509-0.16-1.016-0.266-1.519"/>
	</g>
	<g id="POLYLINE_1161_">
		
			<path fill="none" stroke="#E74C3C" stroke-width="2.75" stroke-linecap="round" stroke-linejoin="round" stroke-miterlimit="10" d="
			M424.868,252.025c2.248,3.161,5.004,5.872,8.141,8.148c2.994,2.172,6.351,4.091,10.002,4.868c3.414,0.726,7.27,0.255,10.102-1.911
			c3.575-2.734,2.705-6.935,3.796-10.774c0.543-1.91,1.694-3.58,2.321-5.464c0.611-1.836,0.969-3.76,1.226-5.675
			c0.069-0.515,0.126-1.031,0.181-1.548"/>
	</g>
	<g id="POLYLINE_1162_">
		
			<path fill="none" stroke="#E74C3C" stroke-width="2.75" stroke-linecap="round" stroke-linejoin="round" stroke-miterlimit="10" d="
			M268.084,348.842c-0.658,1.236-2.373,1.849-3.532,2.486c-1.42,0.78-2.716,1.671-3.746,2.939c-1.914,2.355-3.013,5.755-5.986,7.023
			c-2.584,1.103-5.575,1.053-8.284,1.721c-2.833,0.698-5.411,2.006-7.891,3.516c-5.288,3.22-10.099,7.41-15.778,9.953
			c-2.148,0.962-4.386,1.46-6.745,1.264c-2.706-0.225-5.268-1.265-8.008-1.107c-1.26,0.073-2.573,0.285-3.789-0.173
			c-1.393-0.524-2.467-1.74-3.355-2.886c-1.609-2.077-3.05-4.502-3.976-6.966c-0.614-1.631-0.906-3.384-0.351-5.079
			c0.571-1.741,1.829-3.2,3.179-4.396c2.384-2.112,5.272-3.543,8.144-4.863c2.782-1.278,5.616-2.456,8.324-3.891
			c2.626-1.392,5.047-3.098,7.392-4.917c2.473-1.917,4.904-3.98,7.654-5.497c2.643-1.458,5.539-2.379,8.199-3.803
			c2.739-1.465,5.137-3.482,7.872-4.952c1.292-0.694,2.757-1.336,4.258-1.168c1.697,0.19,3.092,1.339,4.241,2.519
			c1.852,1.905,3.42,4.109,4.963,6.264c2.068,2.886,4.19,5.747,6.18,8.687C267.672,346.44,268.55,347.686,268.084,348.842z"/>
	</g>
	<g id="POLYLINE_1163_">
		
			<path fill="none" stroke="#E74C3C" stroke-width="2.75" stroke-linecap="round" stroke-linejoin="round" stroke-miterlimit="10" d="
			M570.71,403.587c-1.975-2.122-4.136-4.755-2.791-7.785c1.344-3.028,4.537-5.327,7.114-7.247c2.611-1.946,5.356-3.733,8.215-5.293
			c1.501-0.819,3.045-1.6,4.661-2.168c1.217-0.428,2.631-0.822,3.886-0.313c1.678,0.68,2.69,2.615,3.526,4.104
			c0.975,1.735,1.848,3.529,2.757,5.299c1.493,2.91,3.216,5.572,5.426,7.993c4.808,5.268,10.086,10.177,13.593,16.482
			c1.765,3.172,2.758,6.779,5.268,9.493c2.462,2.664,5.579,4.638,8.21,7.126c2.145,2.03,4.05,4.402,5.378,7.05
			c0.707,1.409,1.386,3.055,1.227,4.664c-0.182,1.828-1.585,2.621-3.319,2.377c-3.539-0.499-6.522-2.987-9.146-5.215
			c-0.505-0.429-1.184-1.089-1.898-1.102c-0.778-0.014-1.261,0.789-1.62,1.371c-0.944,1.527-1.596,3.357-2.967,4.577
			c-2.5,2.224-6.624,1.004-9.47,0.185c-2.863-0.824-5.693-2.044-7.993-3.974c-2.91-2.442-4.366-5.911-5.788-9.331
			c-1.356-3.26-2.686-6.444-4.888-9.242c-2.329-2.958-5.193-5.511-7.868-8.145c-2.688-2.648-5.458-5.189-8.249-7.73
			C572.85,405.74,571.76,404.684,570.71,403.587z"/>
	</g>
	<g id="POLYLINE_1164_">
		
			<path fill="none" stroke="#E74C3C" stroke-width="2.75" stroke-linecap="round" stroke-linejoin="round" stroke-miterlimit="10" d="
			M478.775,301.549c0.827,1.857,1.752,3.692,3.03,5.284c1.383,1.724,3.198,2.981,4.943,4.305c3.533,2.679,6.222,6.043,9.054,9.422
			c2.427,2.896,5.04,5.536,8.114,7.747c3.587,2.58,7.821,4.658,10.731,8.062c1.349,1.578,2.353,3.419,3.711,4.988
			c1.426,1.647,3.324,2.622,5.153,3.742c2.043,1.251,3.629,2.76,4.781,4.887c1.046,1.931,1.81,4.015,2.638,6.045
			c1.626,3.989,3.682,7.732,6.012,11.35c2.388,3.71,4.995,7.298,7.792,10.711c2.531,3.088,5.473,5.54,8.817,7.708
			c3.797,2.462,7.748,4.676,11.585,7.074c1.086,0.679,2.173,1.358,3.259,2.037"/>
	</g>
	<g id="POLYLINE_1165_">
		
			<path fill="none" stroke="#E74C3C" stroke-width="2.75" stroke-linecap="round" stroke-linejoin="round" stroke-miterlimit="10" d="
			M456.594,253.921c2.355-0.096,4.674-0.303,6.763-1.498c2.426-1.387,4.343-3.677,5.823-6.016c2.508-3.963,3.728-8.493,3.284-13.179
			c-0.235-2.477-0.879-4.89-1.742-7.218"/>
	</g>
	<g id="POLYLINE_1166_">
		
			<path fill="none" stroke="#E74C3C" stroke-width="2.75" stroke-linecap="round" stroke-linejoin="round" stroke-miterlimit="10" d="
			M472.133,239.401c2.728,0.184,5.45,0.44,8.081,1.225c2.917,0.871,5.598,2.349,8.385,3.544c2.832,1.215,5.922,1.468,8.749,2.647
			c2.637,1.1,4.944,2.966,7.083,4.823c4.932,4.28,9.331,9.169,13.639,14.063c4.553,5.173,8.921,10.497,13.245,15.862
			c4.104,5.091,8.202,10.198,12.143,15.416c1.946,2.576,3.835,5.21,5.485,7.988c1.674,2.817,3.269,5.954,3.423,9.287
			c0.072,1.565-0.209,3.112-0.191,4.674c0.018,1.559,0.627,2.628,1.857,3.577c1.208,0.933,2.622,1.617,3.699,2.715
			c1.074,1.095,1.496,2.54,1.951,3.962c0.473,1.478,1.108,2.689,2.136,3.869c1.152,1.322,2.249,2.573,3.104,4.119
			c1.468,2.652,2.787,5.278,4.892,7.501c2.005,2.117,5.651,4.186,5.941,7.363c0.152,1.665,0.308,2.753,1.407,4.095
			c1.022,1.248,2.206,2.358,3.039,3.753c0.895,1.499,1.255,3.247,2.208,4.718c0.903,1.395,2.253,2.451,3.481,3.545
			c1.086,0.967,2.159,1.994,2.906,3.255c0.959,1.618,1.32,3.522,1.377,5.382c0.039,1.269-0.064,2.54-0.255,3.794"/>
	</g>
	<g id="POLYLINE_1167_">
		
			<path fill="none" stroke="#E74C3C" stroke-width="2.75" stroke-linecap="round" stroke-linejoin="round" stroke-miterlimit="10" d="
			M530.492,354.965c-0.604,3.649-1.321,7.294-1.286,11.009c0.035,3.743,1.184,7.412,1.132,11.142
			c-0.011,0.767-0.059,1.861-0.911,2.164c-0.873,0.31-2-0.3-2.759-0.685c-1.587-0.805-3.065-1.836-4.516-2.861
			c-3.468-2.45-6.895-4.982-10.524-7.194c-6.028-3.674-12.472-6.138-19.63-5.673c-7.865,0.51-15.152,3.745-22.905,4.871
			c-4.05,0.588-8.108,1.173-12.049,2.306c-3.695,1.062-7.163,2.682-10.389,4.769c-6.887,4.454-12.891,10.348-18.762,16.03
			c-5.84,5.652-11.517,11.496-16.969,17.523c-5.404,5.974-10.096,12.259-12.784,19.933c-2.62,7.479-3.882,15.464-4.813,23.309
			c-0.944,7.949-1.695,16.091-1.129,24.095c0.199,2.812,0.016,8.864,3.997,8.868c1.981,0.002,3.945-0.454,5.933-0.476
			c1.744-0.019,3.486,0.157,5.208,0.423c3.827,0.591,7.604,1.605,11.243,2.923c3.54,1.282,7.511,2.862,10.231,5.548
			c1.561,1.541,2.195,3.52,3.275,5.367c1.016,1.739,2.61,2.951,4.389,3.843c2.513,1.26,6.496,2.543,9.054,0.723
			c2.777-1.975,2.894-6.603,3.088-9.655c0.261-4.117,0.345-8.253,0.835-12.353c0.399-3.343,1.074-6.681,2.526-9.739
			c1.714-3.608,4.202-6.792,5.72-10.503c1.405-3.434,1.833-7.132,2.303-10.783c0.432-3.356,0.505-7.834,2.7-10.611
			c1.234-1.561,3.17-2.1,5.061-2.369c2.047-0.291,4.131-0.377,6.19-0.534c4.045-0.308,8.086-0.649,12.096-1.288
			c3.667-0.584,7.367-1.359,10.803-2.8c3.368-1.412,6.312-3.515,9.176-5.747c3.186-2.482,6.584-4.669,9.763-7.153
			c2.969-2.32,5.159-5.124,6.792-8.503c1.74-3.6,3.159-7.389,4.619-11.109c1.328-3.385,1.971-6.985,2.361-10.588
			c0.364-3.367,0.442-6.744,0.25-10.125"/>
	</g>
	<g id="POLYLINE_1168_">
		
			<path fill="none" stroke="#E74C3C" stroke-width="2.75" stroke-linecap="round" stroke-linejoin="round" stroke-miterlimit="10" d="
			M441.006,378.966c-3.264-1.172-6.504-2.42-9.517-4.157c-3.22-1.857-5.966-4.316-8.743-6.76c-2.828-2.487-5.676-4.914-8.809-7.014
			c-3.154-2.113-6.465-4.008-9.838-5.747c-3.449-1.778-7.127-3.203-10.477-5.156c-3.54-2.064-5.89-5.084-5.54-9.287
			c0.281-3.375,1.1-6.577,0.77-9.991c-0.379-3.922-2.046-7.153-3.955-10.527c-1.69-2.987-2.882-5.957-3.255-9.386
			c-0.203-1.861-0.261-3.757-0.605-5.601c-0.151-0.809-0.356-1.899-1.086-2.401c-0.606-0.416-1.407-0.262-2.064-0.073
			c-1.822,0.525-3.485,1.557-5.237,2.27c-1.874,0.763-3.803,1.382-5.709,2.057c-3.268,1.156-6.332,2.648-9.34,4.363
			c-3.611,2.059-7.191,4.187-10.935,5.998c-3.436,1.662-7.018,2.981-10.64,4.175c-7.43,2.451-15.084,4.357-22.117,7.859
			c-3.522,1.754-6.852,3.846-10.255,5.815c-3.137,1.815-6.4,3.367-9.69,4.878c-4.03,1.85-8.099,3.631-12.061,5.624
			c-3.006,1.512-6.237,3.729-9.732,3.696c-1.394-0.013-2.76-0.35-4.084-0.76"/>
	</g>
	<g id="POLYLINE_1169_">
		
			<path fill="none" stroke="#E74C3C" stroke-width="2.75" stroke-linecap="round" stroke-linejoin="round" stroke-miterlimit="10" d="
			M249.382,328.339c-0.102-2.729,0.337-5.106,2.84-6.619c1.291-0.78,2.707-1.326,4.006-2.093c1.316-0.777,2.354-1.836,3.383-2.95
			c1.053-1.141,2.12-2.252,3.483-3.026c1.368-0.777,2.877-1.281,4.334-1.858c1.378-0.545,2.795-1.136,3.921-2.124
			c1.17-1.026,1.922-2.407,2.776-3.684c1.787-2.67,4.375-3.597,7.193-4.845c1.502-0.665,2.866-1.474,4.041-2.635
			c0.994-0.982,1.86-2.083,2.807-3.108c4.045-4.378,10.003-6.236,15.653-7.555c3.061-0.715,6.166-1.082,9.25-1.66
			c3.136-0.587,5.75-1.954,8.283-3.861c2.579-1.942,5.044-4.069,7.485-6.182c1.141-0.988,2.022-2.043,2.605-3.443
			c0.529-1.27,0.963-2.584,1.894-3.631c1.935-2.176,5.342-2.869,8.005-3.704c2.832-0.888,5.673-1.776,8.129-3.497
			c2.386-1.672,4.334-3.872,6.652-5.628c2.455-1.859,5.319-2.999,8.217-3.974c2.892-0.973,5.892-1.749,8.676-3.017
			c2.656-1.209,4.835-3.118,7.287-4.66c2.651-1.668,5.52-2.959,8.234-4.518c2.73-1.568,5.368-3.352,8.278-4.582
			c1.383-0.585,2.813-1.041,4.247-1.482"/>
	</g>
	<g id="POLYLINE_1170_">
		
			<path fill="none" stroke="#E74C3C" stroke-width="2.75" stroke-linecap="round" stroke-linejoin="round" stroke-miterlimit="10" d="
			M401.61,420.59c-5.293-0.459-10.733-0.528-15.925,0.754c-5.419,1.338-10.026,4.927-15.558,5.86
			c-5.106,0.861-11.582-0.635-15.768,3.125c-2.39,2.146-3.919,5.226-5.533,7.954c-1.544,2.609-3.088,5.22-4.729,7.77
			c-3.103,4.822-6.682,10.629-12.16,12.97c-1.195,0.511-2.677,0.869-3.581,1.867c-0.958,1.057-1.052,2.699-1.271,4.04
			c-0.252,1.541-0.543,3.143-1.543,4.396c-0.992,1.244-2.422,2.053-3.752,2.883c-1.3,0.812-2.631,1.632-3.62,2.827
			c-0.979,1.183-1.563,2.607-2.295,3.94c-0.607,1.108-1.362,2.142-2.746,2.092c-1.248-0.046-2.455-0.704-3.52-1.3
			c-5.156-2.887-9.766-6.611-15.074-9.263c-5.184-2.59-10.618-3.911-16.272-5.018c-2.884-0.565-5.815-1.059-8.607-1.995
			c-2.709-0.908-5.313-2.39-5.556-5.513c-0.492-6.324,5.328-11.232,9.12-15.458c3.974-4.429,7.671-9.296,9.664-14.961
			c2.008-5.708,2.737-11.8,4.279-17.639c1.297-4.913,2.874-10.299,6.15-14.298c2.019-2.464,4.899-3.82,7.147-6.014
			c2.271-2.217,3.124-5.393,4.536-8.146c2.951-5.749,9.305-8.031,13.979-12.08c2.258-1.957,4.364-4.086,6.687-5.969
			c2.226-1.806,4.636-3.324,7.221-4.561c5.291-2.534,11.206-4.246,17.09-4.438c2.802-0.091,6.153,0.407,8.711-1.016
			c1.182-0.658,2.18-1.596,3.335-2.297c1.066-0.646,2.213-1.034,3.442-1.22c2.757-0.416,5.564-0.131,8.334-0.361
			c1.14-0.095,2.279-0.279,3.327-0.759c1.487-0.681,2.619-1.878,3.976-2.76c2.105-1.369,4.708-1.748,7.157-1.999"/>
	</g>
	<g id="POLYLINE_1171_">
		
			<path fill="none" stroke="#E74C3C" stroke-width="2.75" stroke-linecap="round" stroke-linejoin="round" stroke-miterlimit="10" d="
			M465.175,539.782c5.087,1.039,10.217,1.792,15.387,2.281c5.645,0.535,11.313,0.797,16.973,1.106
			c5.003,0.274,9.999,0.66,14.967,1.32c5.19,0.689,10.366,1.617,15.411,3.032c4.556,1.277,9.083,2.944,13.087,5.503
			c3.745,2.394,7.036,5.69,8.399,10.018c1.367,4.342,0.769,9.309-1.459,13.267c-2.259,4.013-6.338,6.246-10.627,7.507
			c-4.794,1.41-9.877,1.867-14.857,1.916c-5.152,0.05-10.314-0.409-15.382-1.331c-1.19-0.216-2.371-0.468-3.552-0.728"/>
	</g>
	<g id="POLYLINE_1172_">
		
			<path fill="none" stroke="#E74C3C" stroke-width="2.75" stroke-linecap="round" stroke-linejoin="round" stroke-miterlimit="10" d="
			M503.521,583.673c-0.922-0.215-1.844-0.43-2.767-0.645c-2.612-0.609-5.224-1.219-7.836-1.828
			c-4.092-0.955-8.184-1.909-12.276-2.864c-5.362-1.251-10.724-2.502-16.086-3.752c-6.422-1.498-12.843-2.996-19.265-4.494
			c-7.3-1.703-14.6-3.406-21.9-5.109c-7.913-1.846-15.826-3.692-23.739-5.538c-8.342-1.946-16.684-3.892-25.026-5.838
			c-8.593-2.005-17.186-4.009-25.779-6.014c-8.569-1.999-17.138-3.998-25.707-5.997c-8.367-1.952-16.734-3.903-25.101-5.855
			c-7.955-1.856-15.909-3.711-23.864-5.567c-7.332-1.71-14.665-3.421-21.997-5.131c-6.523-1.522-13.046-3.043-19.569-4.565
			c-5.453-1.272-10.907-2.544-16.36-3.816c-4.2-0.98-8.401-1.96-12.601-2.939c-2.744-0.64-5.489-1.28-8.233-1.921
			c-1.057-0.247-2.115-0.49-3.171-0.74c-4.977-1.179-9.822-2.858-14.453-5.032c-4.923-2.311-9.62-5.135-13.93-8.455
			c-4.37-3.366-8.125-7.334-11.73-11.49c-1.925-2.219-3.827-4.461-5.703-6.722c-1.744-2.102-3.602-4.213-5.072-6.522
			c-0.22-0.345-0.754-1.046-0.562-1.486c0.208-0.478,0.992-0.337,1.406-0.288c0.939,0.112,1.865,0.356,2.78,0.586
			c3.578,0.9,7.152,1.818,10.727,2.728c4.446,1.13,8.911,2.213,13.391,3.2c1.259,0.278,2.524,0.53,3.786,0.795
			c3.007,0.632,6.014,1.263,9.021,1.895c4.517,0.949,9.034,1.898,13.552,2.847c5.816,1.222,11.632,2.444,17.448,3.666
			c6.807,1.43,13.614,2.86,20.422,4.29c7.665,1.61,15.33,3.221,22.995,4.831c8.205,1.724,16.409,3.447,24.614,5.171
			c8.536,1.793,17.072,3.587,25.609,5.38c8.665,1.82,17.329,3.641,25.994,5.461c8.492,1.784,16.983,3.568,25.475,5.352
			c8.116,1.705,16.231,3.41,24.347,5.115c7.531,1.582,15.062,3.164,22.593,4.746c6.63,1.393,13.26,2.786,19.89,4.179
			c5.593,1.175,11.185,2.35,16.778,3.525c4.25,0.893,8.501,1.786,12.751,2.679c2.695,0.566,5.391,1.133,8.086,1.699
			c0.906,0.19,1.812,0.381,2.719,0.571"/>
	</g>
	<g id="POLYLINE_1173_">
		
			<path fill="none" stroke="#E74C3C" stroke-width="2.75" stroke-linecap="round" stroke-linejoin="round" stroke-miterlimit="10" d="
			M224.033,489.121c-3.36-3.862-5.052-9.244-3.39-14.241c1.625-4.884,6.481-7.702,10.833-9.879
			c3.912-1.956,8.128-3.788,12.384-1.759c4.146,1.976,7.549,6.063,12.387,6.29c4.16,0.195,8.703-1.956,11.919-4.457
			c0.6-0.467,1.17-0.969,1.704-1.51"/>
	</g>
	<g id="POLYLINE_1174_">
		
			<path fill="none" stroke="#E74C3C" stroke-width="2.75" stroke-linecap="round" stroke-linejoin="round" stroke-miterlimit="10" d="
			M304.171,505.957c1.974-2.346,3.719-4.923,4.702-7.85c1.142-3.4,1.215-7.041,1.909-10.538c0.441-2.223,1.046-4.411,1.61-6.605"/>
	</g>
	<g id="POLYLINE_1175_">
		
			<path fill="none" stroke="#E74C3C" stroke-width="2.75" stroke-linecap="round" stroke-linejoin="round" stroke-miterlimit="10" d="
			M363.257,518.37c-1.118-2.26-2.088-4.571-2.403-7.095c-0.296-2.372-0.043-4.79,0.495-7.109c0.972-4.189,2.926-8.435,6.15-11.364
			c3.638-3.305,8.762-4.726,13.601-4.027c5.117,0.739,9.656,3.684,13.724,6.709c4.552,3.386,8.809,7.278,12.225,11.827
			c0.403,0.537,0.79,1.084,1.171,1.636"/>
	</g>
	<g id="POLYLINE_1176_">
		
			<path fill="none" stroke="#E74C3C" stroke-width="2.75" stroke-linecap="round" stroke-linejoin="round" stroke-miterlimit="10" d="
			M389.098,491.698c2.593-1.844,4.545-4.393,5.564-7.405"/>
	</g>
	<g id="POLYLINE_1177_">
		
			<path fill="none" stroke="#E74C3C" stroke-width="2.75" stroke-linecap="round" stroke-linejoin="round" stroke-miterlimit="10" d="
			M424.832,531.306c1.242-1.589,2.422-3.257,3.182-5.138c0.766-1.898,0.854-3.882,1.049-5.894c0.199-2.062,0.744-3.846,1.887-5.585
			c1.207-1.837,2.686-3.481,3.759-5.408c1.171-2.102,1.919-4.388,2.681-6.659"/>
	</g>
</g>
<g id="AG-OUTLINE">
	<g id="POLYLINE_9_">
		
			<path fill="none" stroke="#E74C3C" stroke-width="3.5" stroke-linecap="round" stroke-linejoin="round" stroke-miterlimit="10" d="
			M363.257,518.37c-1.723-3.484-2.806-7.024-2.442-10.95c0.327-3.524,1.433-7.048,3.178-10.129c1.941-3.428,4.829-6.145,8.534-7.565
			c3.589-1.375,7.541-1.456,11.214-0.366c1.775,0.527,3.31,1.438,5.001,2.139c0.358,0.148,0.273,0.18,0.634-0.002
			c0.355-0.179,0.7-0.547,0.995-0.808c0.549-0.485,1.065-1.007,1.546-1.56c0.802-0.923,1.499-1.935,2.028-3.04
			c0.212-0.443,0.505-0.967,0.598-1.451c0.079-0.41,0.082-0.26-0.191-0.536c-0.168-0.17-0.349-0.306-0.498-0.498
			c-0.571-0.739-0.829-1.712-1.024-2.609c-0.451-2.071-0.582-4.234-0.7-6.345c-0.239-4.284-0.057-8.586,0.244-12.863
			c0.317-4.499,0.753-8.991,1.375-13.459c0.617-4.436,1.366-8.856,2.417-13.211c0.96-3.98,2.176-7.91,3.933-11.616
			c0.469-0.989,0.977-1.957,1.511-2.912c-4.483-0.389-9.022-0.481-13.477,0.254c-4.673,0.771-8.606,2.95-12.905,4.787
			c-1.972,0.843-3.999,1.46-6.132,1.721c-2.405,0.294-4.834,0.267-7.249,0.425c-2.056,0.135-4.188,0.394-5.997,1.453
			c-2.307,1.35-3.83,3.713-5.186,5.949c-2.66,4.384-5.168,8.852-8.042,13.104c-2.671,3.952-5.748,8.485-10.215,10.532
			c-2.177,0.998-4.318,1.405-4.947,4.018c-0.614,2.551-0.523,5.266-2.578,7.198c-1.88,1.769-4.429,2.648-6.25,4.494
			c-0.892,0.904-1.502,2.015-2.075,3.136c-0.511,0.999-1.001,2.279-1.93,2.974c-0.363,0.272-0.778,0.41-1.229,0.434
			c-0.214,0.012-0.469-0.071-0.674-0.042c-0.421,0.059-0.123-0.123-0.347,0.176c-0.412,0.548-0.492,1.764-0.665,2.423
			c-0.144,0.549-0.289,1.098-0.422,1.649c-0.617,2.559-0.978,5.138-1.331,7.743c-0.527,3.899-1.695,7.39-3.979,10.622
			c-0.566,0.801-1.177,1.565-1.809,2.316c6.671,1.401,13.342,2.803,20.013,4.204c10.614,2.23,21.227,4.46,31.841,6.689
			C358.436,517.357,360.846,517.864,363.257,518.37z"/>
	</g>
	<g id="POLYLINE_10_">
		
			<path fill="none" stroke="#E74C3C" stroke-width="3.5" stroke-linecap="round" stroke-linejoin="round" stroke-miterlimit="10" d="
			M401.06,234.003c-2.026-5.52-3.031-11.347-3.356-17.207c-0.332-5.98-0.001-12.049,0.984-17.958
			c0.934-5.606,2.513-11.408,5.917-16.055c4.019-5.486,10.473-7.994,16.995-8.97c5.821-0.871,11.831-0.798,17.667-0.108
			c5.601,0.662,11.301,1.937,16.342,4.542c4.605,2.379,8.121,6.072,10.438,10.694c2.566,5.117,3.978,10.909,4.922,16.527
			c0.481,2.865,0.919,5.862,0.68,8.773c-0.049,0.601-0.126,1.216-0.319,1.79c-0.191,0.569-0.802,1.103-0.846,1.651
			c-0.046,0.563,0.226,1.303,0.292,1.879c0.063,0.547,0.106,1.097,0.133,1.647c0.053,1.084,0.038,2.172-0.037,3.254
			c-0.037,0.534-0.198,1.162-0.101,1.677c0.117,0.621,0.447,1.258,0.633,1.867c0.748,2.453,1.197,5.013,1.158,7.583
			c-0.019,1.281-0.159,2.558-0.428,3.811c2.728,0.184,5.45,0.44,8.081,1.225c2.917,0.871,5.598,2.349,8.385,3.544
			c2.832,1.215,5.922,1.468,8.749,2.647c2.637,1.1,4.944,2.966,7.083,4.823c4.932,4.28,9.331,9.169,13.639,14.063
			c4.553,5.173,8.921,10.497,13.245,15.862c4.104,5.091,8.202,10.198,12.143,15.416c1.946,2.576,3.835,5.21,5.485,7.988
			c1.674,2.817,3.269,5.954,3.423,9.287c0.072,1.565-0.209,3.112-0.191,4.674c0.018,1.559,0.627,2.628,1.857,3.577
			c1.208,0.933,2.622,1.617,3.699,2.715c1.074,1.095,1.496,2.54,1.951,3.962c0.473,1.478,1.108,2.689,2.136,3.869
			c1.152,1.322,2.249,2.573,3.104,4.119c1.468,2.652,2.787,5.278,4.892,7.501c2.005,2.117,5.651,4.186,5.941,7.363
			c0.152,1.665,0.308,2.753,1.407,4.095c1.022,1.248,2.206,2.358,3.039,3.753c0.895,1.499,1.255,3.247,2.208,4.718
			c0.903,1.395,2.253,2.451,3.481,3.545c1.086,0.967,2.159,1.994,2.906,3.255c0.959,1.618,1.32,3.522,1.377,5.382
			c0.039,1.269-0.064,2.54-0.255,3.794c2.544-0.281,3.919,1.771,5.069,3.725c1.093,1.858,2.029,3.812,3.012,5.728
			c1.713,3.338,3.728,6.307,6.326,9.025c5.614,5.873,11.068,11.663,14.488,19.13c0.822,1.794,1.615,3.603,2.855,5.159
			c1.371,1.721,3.133,3.082,4.83,4.464c2.86,2.33,5.634,4.682,7.768,7.725c0.925,1.319,1.755,2.731,2.327,4.242
			c0.571,1.51,1.164,3.889-0.311,5.11c-1.66,1.373-4.48,0.007-6.093-0.818c-1.544-0.79-2.986-1.77-4.304-2.897
			c-1.277-1.092-2.964-3.183-4.39-1.211c-1.169,1.617-1.743,3.677-3.268,5.037c-2.711,2.418-7.488,0.852-10.514-0.136
			c-3.54-1.156-6.957-3.004-9.207-6.055c-2.389-3.24-3.525-7.204-5.182-10.825c-1.614-3.525-3.977-6.453-6.716-9.169
			c-2.851-2.828-5.669-5.707-8.639-8.412c-3.076-2.801-6.601-5.537-9.055-8.936c-0.888-1.23-1.621-2.682-1.414-4.242
			c0.05-0.376,0.151-0.744,0.285-1.098c0.086-0.227,0.651-1.028,0.61-1.213c-0.035-0.158-0.805-0.503-0.937-0.586
			c-0.673-0.421-1.346-0.842-2.02-1.262c-3.459-2.162-7.009-4.176-10.459-6.351c-3.052-1.924-6.031-3.959-8.501-6.614
			c-2.729-2.934-5.117-6.237-7.397-9.525c-2.234-3.222-4.35-6.546-6.126-10.045c-0.919-1.812-1.7-3.684-2.464-5.565
			c-0.533,3.223-1.169,6.446-1.272,9.72c-0.102,3.243,0.462,6.396,0.888,9.598c0.218,1.638,0.36,3.104-0.192,4.657
			c-0.227,0.64-0.033,1.561-0.015,2.262c0.019,0.747,0.024,1.495,0.014,2.242c-0.044,3.253-0.351,6.514-0.917,9.718
			c-0.531,3.004-1.461,5.78-2.606,8.597c-1.334,3.281-2.547,6.662-4.159,9.821c-1.524,2.988-3.546,5.499-6.178,7.596
			c-2.511,2.001-5.272,3.661-7.807,5.631c-2.869,2.231-5.684,4.556-8.897,6.285c-2.81,1.512-5.852,2.476-8.958,3.173
			c-6.819,1.529-13.797,1.854-20.738,2.44c-3.448,0.291-6.658,0.977-8.017,4.522c-1.213,3.165-1.397,6.756-1.825,10.083
			c-0.387,3.004-0.834,6.033-1.926,8.874c-1.278,3.327-3.348,6.226-5.058,9.329c-2.997,5.438-3.538,11.552-3.877,17.645
			c-0.201,3.607-0.18,7.345-0.905,10.899c-0.285,1.398-0.713,2.862-1.617,3.996c-1.017,1.275-2.519,1.731-4.103,1.715
			c-1.697-0.017-3.385-0.489-4.939-1.145c-0.68,2.027-1.344,4.064-2.317,5.975c-1.004,1.973-2.413,3.648-3.683,5.448
			c-1.195,1.694-1.983,3.414-2.245,5.48c-0.255,2.002-0.228,4.037-0.881,5.97c-0.726,2.152-2.045,4.037-3.432,5.81
			c4.827,1.014,9.655,2.028,14.482,3.043c7.344,1.543,14.688,3.086,22.033,4.629c4.083,0.858,8.161,1.697,12.296,2.278
			c5.41,0.76,10.857,1.175,16.308,1.499c5.497,0.327,11.001,0.537,16.485,1.052c5.429,0.51,10.828,1.278,16.163,2.409
			c4.988,1.057,9.972,2.486,14.58,4.698c3.97,1.905,7.843,4.49,10.33,8.203c2.727,4.071,3.256,9.213,1.838,13.859
			c-1.407,4.61-4.631,7.91-9.035,9.779c-4.578,1.943-9.697,2.609-14.627,2.877c-5.298,0.288-10.63-0.009-15.877-0.782
			c-2.406-0.354-4.79-0.827-7.158-1.38c-1.755-0.409-3.509-0.819-5.264-1.228c-3.172-0.74-6.343-1.48-9.515-2.219
			c-4.414-1.03-8.828-2.059-13.242-3.089c-5.478-1.278-10.955-2.556-16.433-3.833c-6.363-1.484-12.726-2.969-19.089-4.453
			c-7.07-1.649-14.14-3.298-21.21-4.948c-7.598-1.772-15.197-3.545-22.795-5.317c-7.948-1.854-15.896-3.708-23.844-5.562
			c-8.12-1.894-16.239-3.788-24.359-5.682c-8.144-1.9-16.289-3.8-24.433-5.7c-7.895-1.842-15.789-3.683-23.684-5.525
			c-7.592-1.771-15.184-3.542-22.776-5.313c-7.018-1.637-14.035-3.274-21.053-4.911c-6.296-1.469-12.592-2.937-18.888-4.406
			c-5.396-1.259-10.791-2.517-16.187-3.776c-4.317-1.007-8.634-2.014-12.95-3.021c-3.06-0.714-6.119-1.427-9.179-2.141
			c-1.624-0.379-3.248-0.758-4.871-1.136c-2.777-0.648-5.521-1.414-8.212-2.363c-4.876-1.719-9.571-3.949-13.995-6.625
			c-4.377-2.647-8.499-5.725-12.18-9.281c-3.902-3.77-7.373-7.987-10.857-12.139c-1.732-2.064-3.462-4.136-5.085-6.288
			c-0.56-0.742-1.668-1.859-1.761-2.82c-0.109-1.136,1.883-0.565,2.514-0.435c5.18,1.072,10.265,2.638,15.406,3.881
			c4.14,1.001,8.285,1.997,12.453,2.873c6.164,1.295,12.329,2.59,18.493,3.885c7.801,1.639,15.603,3.278,23.404,4.917
			c3.658,0.768,7.315,1.537,10.973,2.305c-3.36-3.862-5.052-9.244-3.39-14.241c1.625-4.884,6.481-7.702,10.833-9.879
			c3.912-1.956,8.128-3.788,12.384-1.759c4.146,1.976,7.549,6.063,12.387,6.29c4.16,0.195,8.703-1.956,11.919-4.457
			c0.6-0.467,1.17-0.969,1.704-1.51c-2.773-0.909-5.523-2.372-5.771-5.593c-0.257-3.333,1.55-6.67,3.532-9.222
			c1.936-2.493,4.248-4.681,6.323-7.057c2.157-2.471,4.2-5.064,5.92-7.861c3.591-5.841,4.686-12.467,6.118-19.062
			c1.218-5.609,2.684-11.471,5.537-16.501c1.576-2.777,3.783-4.747,6.347-6.596c1.369-0.987,2.731-1.996,3.723-3.385
			c0.977-1.368,1.621-2.941,2.302-4.468c0.728-1.635,1.459-3.282,2.546-4.719c1.122-1.484,2.578-2.669,4.087-3.738
			c2.458-1.741,5.089-3.223,7.431-5.128c2.478-2.016,4.706-4.317,7.153-6.369c2.371-1.988,4.946-3.658,7.735-4.996
			c5.586-2.68,11.813-4.401,18.028-4.471c3.233-0.037,6.288,0.18,9.026-1.805c1.28-0.928,2.515-1.904,4.049-2.379
			c1.184-0.366,2.443-0.469,3.675-0.525c2.796-0.129,5.815,0.243,8.537-0.566c1.566-0.466,2.768-1.498,4.041-2.476
			c1.213-0.932,2.502-1.561,3.979-1.958c1.33-0.357,2.7-0.545,4.068-0.684c-0.5-2.013-0.082-4.125,0.228-6.135
			c0.284-1.843,0.514-3.677,0.459-5.547c-0.123-4.193-1.623-7.713-3.658-11.309c-1.894-3.348-3.29-6.552-3.676-10.411
			c-0.209-2.095-0.147-4.539-0.904-6.541c-0.819-2.166-2.971-1.234-4.551-0.517c-1.936,0.878-3.835,1.758-5.84,2.471
			c-2.099,0.746-4.219,1.433-6.278,2.286c-4.096,1.696-7.896,4.088-11.737,6.278c-3.429,1.955-6.962,3.717-10.642,5.15
			c-4.139,1.612-8.399,2.887-12.634,4.219c-4.109,1.292-8.237,2.54-12.19,4.271c-3.963,1.735-7.676,3.935-11.394,6.131
			c-3.377,1.994-6.829,3.798-10.393,5.435c-4.454,2.045-8.962,4.001-13.336,6.217c-3.309,1.677-6.751,3.988-10.63,3.529
			c-0.76-0.09-1.508-0.261-2.245-0.466c-0.148-0.041-0.52-0.231-0.665-0.196c-0.162,0.039-0.291,0.314-0.439,0.478
			c-0.313,0.347-0.725,0.608-1.12,0.849c-1.772,1.084-3.714,1.843-5.183,3.366c-1.51,1.564-2.431,3.556-3.713,5.29
			c-1.299,1.757-2.907,2.628-5.019,3.06c-1.97,0.402-3.976,0.582-5.935,1.046c-1.942,0.46-3.783,1.185-5.55,2.108
			c-3.864,2.019-7.385,4.654-10.992,7.085c-3.029,2.041-6.255,4.274-9.827,5.234c-1.536,0.413-3.126,0.493-4.704,0.319
			c-1.967-0.217-3.861-0.883-5.831-1.059c-1.67-0.149-3.395,0.369-5.04-0.029c-1.895-0.458-3.273-2.199-4.35-3.714
			c-2.078-2.922-4.92-7.243-3.936-10.994c1.157-4.408,6.109-7.085,9.903-8.913c3.805-1.833,7.775-3.345,11.426-5.485
			c3.788-2.22,7.053-5.159,10.612-7.705c3.298-2.36,7.054-3.573,10.629-5.408c1.943-0.997,3.723-2.262,5.536-3.472
			c0.733-0.489,1.473-0.971,2.237-1.41c0.471-0.271,0.95-0.528,1.444-0.753c0.237-0.108,0.595-0.177,0.8-0.33
			c0.293-0.218,0.255-0.193,0.248-0.607c-0.025-1.57,0.094-3.292,1.067-4.598c1.223-1.642,3.461-2.332,5.196-3.264
			c1.894-1.017,3.212-2.496,4.674-4.03c1.433-1.504,3.045-2.525,4.967-3.296c1.961-0.787,4.136-1.413,5.816-2.746
			c1.662-1.319,2.478-3.324,3.789-4.938c1.326-1.633,3.21-2.441,5.1-3.238c1.995-0.841,3.876-1.708,5.435-3.26
			c1.354-1.348,2.492-2.896,3.889-4.205c1.553-1.455,3.376-2.531,5.305-3.408c3.689-1.678,7.672-2.738,11.638-3.522
			c4.076-0.806,8.413-0.898,12.107-2.989c3.776-2.138,7.064-5.269,10.347-8.072c0.755-0.645,1.492-1.328,2.038-2.165
			c0.555-0.85,0.858-1.826,1.252-2.755c0.79-1.864,2.008-3.144,3.839-4.022c3.737-1.793,7.958-2.336,11.653-4.242
			c3.481-1.796,5.94-4.906,9.084-7.163c3.615-2.596,8.077-3.749,12.253-5.104c1.7-0.552,3.402-1.134,4.999-1.946
			c1.848-0.939,3.483-2.201,5.17-3.393c3.304-2.335,7.072-3.925,10.546-5.984c1.915-1.135,3.811-2.333,5.809-3.322
			C397.174,235.252,399.106,234.604,401.06,234.003z"/>
	</g>
</g>
</svg>
